<svg width="30" height="30" viewBox="0 0 30 30" fill="none" xmlns="http://www.w3.org/2000/svg">
<path d="M28.6764 1.28014C27.832 0.454559 26.7206 0 25.5469 0H4.39453C1.97136 0 0 1.97136 0 4.39453V25.6055C0 28.0286 1.97136 30 4.39453 30H25.6055C28.0286 30 30 28.0286 30 25.6055V4.39453C30 3.22037 29.5299 2.11441 28.6764 1.28014ZM15.8789 15.8789H14.1211V14.1211H15.8789C16.3644 14.1211 16.7578 13.7276 16.7578 13.2422C16.7578 10.8316 16.7576 9.72908 16.7576 9.22188C16.7574 8.28827 16.7587 7.27135 17.6706 6.49109C18.3657 5.89645 19.2517 5.53734 20.4593 5.36064C21.7332 5.17456 23.0262 5.2327 24.3917 5.53917C24.288 6.23703 24.1651 7.06375 24.0724 7.68677C23.5542 7.58171 22.665 7.4968 21.9372 7.62016C20.3213 7.89345 19.3945 8.89618 19.3945 10.3711V13.2422C19.3945 13.7276 19.788 14.1211 20.2734 14.1211H23.5423L23.1029 15.8789H20.2734C19.788 15.8789 19.3945 16.2724 19.3945 16.7578V28.2422H16.7578V16.7578C16.7578 16.2724 16.3644 15.8789 15.8789 15.8789ZM28.2422 25.6055C28.2422 27.0593 27.0593 28.2422 25.6055 28.2422H21.1523V17.6367H23.7891C24.1924 17.6367 24.5439 17.3623 24.6416 16.9709L25.5206 13.4553C25.5862 13.1927 25.5272 12.9147 25.3608 12.7013C25.1942 12.488 24.9385 12.3633 24.668 12.3633H21.1523V10.3711C21.1523 9.96689 21.2357 9.52148 22.2308 9.35303C23.0095 9.22119 23.7053 9.39514 24.3192 9.54895C24.6142 9.62265 24.9316 9.73503 25.2935 9.49013C25.4972 9.35211 25.6339 9.13513 25.6702 8.89183C25.6702 8.89183 26.0651 6.23932 26.247 5.01297C26.3118 4.57626 26.0429 4.15924 25.6181 4.03839C23.9014 3.55019 21.8017 3.38974 20.2167 3.62137C18.6662 3.84819 17.4861 4.33548 16.5278 5.15556C15.1945 6.29631 15.0291 7.76001 15.0119 8.75816C15.0114 8.77853 15.0117 10.554 15.0117 12.3633H13.2422C12.7567 12.3633 12.3633 12.7567 12.3633 13.2422V16.7578C12.3633 17.2433 12.7567 17.6367 13.2422 17.6367H15V28.2422H4.39453C2.94067 28.2422 1.75781 27.0593 1.75781 25.6055V4.39453C1.75781 2.94067 2.94067 1.75781 4.39453 1.75781H25.5469C27.0078 1.75781 28.2422 2.96539 28.2422 4.39453V25.6055Z" fill="white"/>
</svg>
