<svg width="154" height="52" viewBox="0 0 154 52" fill="none" xmlns="http://www.w3.org/2000/svg">
<path d="M50.5917 25C50.5917 38.5208 39.3885 49.5 25.5459 49.5C11.7032 49.5 0.5 38.5208 0.5 25C0.5 11.4791 11.7032 0.5 25.5459 0.5C39.3885 0.5 50.5917 11.4791 50.5917 25Z" stroke="white"/>
<path d="M62.834 12.4L65.444 16.216L68.054 12.4H71.474L67.28 18.43L71.816 25H68.378L65.444 20.824L62.546 25H59.18L63.68 18.556L59.468 12.4H62.834ZM78.9312 25.216C77.6232 25.216 76.4412 24.934 75.3852 24.37C74.3412 23.806 73.5192 23.032 72.9192 22.048C72.3312 21.052 72.0372 19.936 72.0372 18.7C72.0372 17.464 72.3312 16.354 72.9192 15.37C73.5192 14.374 74.3412 13.594 75.3852 13.03C76.4412 12.466 77.6232 12.184 78.9312 12.184C80.2392 12.184 81.4152 12.466 82.4592 13.03C83.5032 13.594 84.3252 14.374 84.9252 15.37C85.5252 16.354 85.8252 17.464 85.8252 18.7C85.8252 19.936 85.5252 21.052 84.9252 22.048C84.3252 23.032 83.5032 23.806 82.4592 24.37C81.4152 24.934 80.2392 25.216 78.9312 25.216ZM78.9312 22.732C79.6752 22.732 80.3472 22.564 80.9472 22.228C81.5472 21.88 82.0152 21.4 82.3512 20.788C82.6992 20.176 82.8732 19.48 82.8732 18.7C82.8732 17.92 82.6992 17.224 82.3512 16.612C82.0152 16 81.5472 15.526 80.9472 15.19C80.3472 14.842 79.6752 14.668 78.9312 14.668C78.1872 14.668 77.5152 14.842 76.9152 15.19C76.3152 15.526 75.8412 16 75.4932 16.612C75.1572 17.224 74.9892 17.92 74.9892 18.7C74.9892 19.48 75.1572 20.176 75.4932 20.788C75.8412 21.4 76.3152 21.88 76.9152 22.228C77.5152 22.564 78.1872 22.732 78.9312 22.732ZM98.772 12.4V25H95.892V14.776H91.572L91.482 17.404C91.422 19.192 91.278 20.644 91.05 21.76C90.822 22.864 90.438 23.716 89.898 24.316C89.37 24.904 88.626 25.198 87.666 25.198C87.27 25.198 86.79 25.132 86.226 25L86.406 22.534C86.562 22.582 86.736 22.606 86.928 22.606C87.624 22.606 88.11 22.198 88.386 21.382C88.662 20.554 88.836 19.264 88.908 17.512L89.088 12.4H98.772ZM113.205 25L113.187 17.458L109.479 23.668H108.183L104.475 17.602V25H101.739V12.4H104.151L108.867 20.23L113.511 12.4H115.923L115.941 25H113.205ZM66.524 47.216C65.24 47.216 64.076 46.94 63.032 46.388C62 45.824 61.184 45.05 60.584 44.066C59.996 43.07 59.702 41.948 59.702 40.7C59.702 39.452 59.996 38.336 60.584 37.352C61.184 36.356 62 35.582 63.032 35.03C64.076 34.466 65.246 34.184 66.542 34.184C67.634 34.184 68.618 34.376 69.494 34.76C70.382 35.144 71.126 35.696 71.726 36.416L69.854 38.144C69.002 37.16 67.946 36.668 66.686 36.668C65.906 36.668 65.21 36.842 64.598 37.19C63.986 37.526 63.506 38 63.158 38.612C62.822 39.224 62.654 39.92 62.654 40.7C62.654 41.48 62.822 42.176 63.158 42.788C63.506 43.4 63.986 43.88 64.598 44.228C65.21 44.564 65.906 44.732 66.686 44.732C67.946 44.732 69.002 44.234 69.854 43.238L71.726 44.966C71.126 45.698 70.382 46.256 69.494 46.64C68.606 47.024 67.616 47.216 66.524 47.216ZM84.5765 34.4L79.2125 44.372C78.6965 45.332 78.0725 46.058 77.3405 46.55C76.6205 47.042 75.8345 47.288 74.9825 47.288C74.3225 47.288 73.6385 47.144 72.9305 46.856L73.6325 44.642C74.1365 44.798 74.5565 44.876 74.8925 44.876C75.2525 44.876 75.5765 44.792 75.8645 44.624C76.1525 44.444 76.4165 44.168 76.6565 43.796L76.7645 43.652L71.7965 34.4H74.9105L78.2585 41.168L81.7145 34.4H84.5765ZM98.5672 44.624V49.61H95.8672V47H86.9752V49.61H84.2752L84.2932 44.624H84.7972C85.5532 44.6 86.0872 44.048 86.3992 42.968C86.7112 41.888 86.9032 40.346 86.9752 38.342L87.1192 34.4H96.8032V44.624H98.5672ZM89.5492 38.612C89.4892 40.112 89.3632 41.372 89.1712 42.392C88.9792 43.4 88.6852 44.144 88.2892 44.624H93.9232V36.776H89.6032L89.5492 38.612ZM106.452 38.54C107.988 38.54 109.164 38.882 109.98 39.566C110.808 40.25 111.222 41.264 111.222 42.608C111.222 44.036 110.766 45.128 109.854 45.884C108.954 46.628 107.682 47 106.038 47H100.35V34.4H103.248V38.54H106.452ZM105.876 44.84C106.632 44.84 107.22 44.654 107.64 44.282C108.072 43.91 108.288 43.37 108.288 42.662C108.288 41.354 107.484 40.7 105.876 40.7H103.248V44.84H105.876ZM113.143 34.4H123.313V36.722H116.041V39.314H119.533C121.057 39.314 122.215 39.632 123.007 40.268C123.811 40.904 124.213 41.822 124.213 43.022C124.213 44.282 123.769 45.26 122.881 45.956C121.993 46.652 120.739 47 119.119 47H113.143V34.4ZM118.957 44.84C119.701 44.84 120.271 44.696 120.667 44.408C121.063 44.108 121.261 43.676 121.261 43.112C121.261 42.008 120.493 41.456 118.957 41.456H116.041V44.84H118.957ZM132.354 38.54C133.89 38.54 135.066 38.882 135.882 39.566C136.71 40.25 137.124 41.264 137.124 42.608C137.124 44.036 136.668 45.128 135.756 45.884C134.856 46.628 133.584 47 131.94 47H126.252V34.4H129.15V38.54H132.354ZM131.778 44.84C132.534 44.84 133.122 44.654 133.542 44.282C133.974 43.91 134.19 43.37 134.19 42.662C134.19 41.354 133.386 40.7 131.778 40.7H129.15V44.84H131.778ZM138.726 34.4H141.624V47H138.726V34.4Z" fill="white"/>
</svg>
